<?xml version="1.0" encoding="UTF-8" standalone="no"?>
<svg width="2327px" height="657px" viewBox="0 0 2327 657" version="1.1" xmlns="http://www.w3.org/2000/svg" xmlns:xlink="http://www.w3.org/1999/xlink" xmlns:sketch="http://www.bohemiancoding.com/sketch/ns">
    <!-- Generator: Sketch 3.2.2 (9983) - http://www.bohemiancoding.com/sketch -->
    <title>Slice 1</title>
    <desc>Created with Sketch.</desc>
    <defs></defs>
    <g id="Page-1" stroke="none" stroke-width="1" fill="none" fill-rule="evenodd" sketch:type="MSPage">
        <g id="Color" sketch:type="MSLayerGroup" transform="translate(0.000000, 25.000000)">
            <path d="M316,566 C454.071187,566 566,454.071187 566,316 C566,177.928813 454.071187,66 316,66 C177.928813,66 66,177.928813 66,316 C66,454.071187 177.928813,566 316,566 Z" id="Path-for-text" sketch:type="MSShapeGroup" transform="translate(316.000000, 316.000000) scale(1, -1) rotate(-108.000000) translate(-316.000000, -316.000000) "></path>
            <text id="MADE--IN--UKRAINE---" sketch:type="MSTextLayer" transform="translate(767.500000, 87.528320) rotate(1.000000) translate(-767.500000, -87.528320) " font-family="Roboto" font-size="54" font-weight="bold" letter-spacing="7.89999866" fill="#000000">
                <tspan x="68" y="108.52832">MADE  IN  UKRAINE        MADE  IN  UKRAIN</tspan>
                <tspan x="1435.03862" y="108.52832">E</tspan>
            </text>
            <path d="M315.500001,159 C302.749173,172.112156 302.574504,188.53424 302.574504,191.559611 C302.574504,208.954068 305.019868,239.854124 305.019868,273.671297 C305.019868,326.612119 277.65553,361.832783 277.65553,361.832783 C277.65553,361.832783 277.18952,362.697534 271.600117,362.697534 C266.010713,362.697534 253.900563,358.483918 253.900563,346.059575 C253.900563,333.633973 268.688743,330.177486 271.483445,330.177486 C274.278147,330.177486 275.675498,330.609233 275.675498,330.609233 C275.675498,330.609233 272.880796,307.920217 266.592716,256.708585 C254.365895,201.931586 210,182.808256 210,182.808256 L210,419.743403 L269.154752,419.743403 C269.154752,419.743403 273.463477,453.128201 305.019868,474.412779 C305.019868,474.412779 315.033991,482.407006 315.500001,485 C315.96601,482.407006 325.980133,474.412779 325.980133,474.412779 C357.536517,453.128836 361.845249,419.743403 361.845249,419.743403 L421,419.743403 L421,182.808572 C421,182.808572 376.634106,201.931903 364.407285,256.708902 C358.119206,307.920535 355.324504,330.609233 355.324504,330.609233 C355.324504,330.609233 356.721855,330.177486 359.516557,330.177486 C362.311259,330.177486 377.099431,333.634602 377.099431,346.059575 C377.099431,358.484554 364.989289,362.698169 359.399885,362.698169 C353.810481,362.698169 353.344464,361.833412 353.344464,361.833412 C353.344464,361.833412 325.980133,326.612119 325.980133,273.671615 C325.980133,239.854441 328.425497,208.954386 328.425497,191.559927 C328.425497,188.534557 328.250828,172.112472 315.500001,159.000316 L315.500001,159 Z M403,218 C403,218 386.598792,236.648318 381.844387,258.549969 C379.229361,278.716636 374,317.96616 374,317.96616 C374,317.96616 389.688774,324.037634 393.254405,339 L403,339 L403,218 Z M360,379.607824 C363.651972,379.607824 387.733842,376.262442 392.641698,355 L402,355 L402,404 L363.651972,404 C363.651972,404 363.651972,390.616588 360,379.607824 Z M346,404 L325,404 C325,404 325.677763,385.730183 343.245902,383 C344.73726,387.741935 346,393.5 346,404 Z M325,420 L343,420 C343,420 341.038007,439.26757 325,453 L325,420 Z M228,218 C228,218 244.401201,236.648374 249.155613,258.550076 C251.770639,278.716795 257,317.966742 257,317.966742 C257,317.966742 241.311226,324.037595 237.745595,339 L228,339 L228,218 Z M270,379.608143 C266.348028,379.608143 242.266158,376.262718 237.358302,355 L228,355 L228,404 L266.348028,404 C266.348028,404 266.348028,390.617049 270,379.608143 Z M285,404 L306,404 C306,404 305.32223,385.729526 287.754098,383 C286.26274,387.741935 285,393.5 285,404 Z M306,420 L288,420 C288,420 289.961986,439.26757 306,453 L306,420 Z M315,323 C315,323 307.299297,349.823418 295,367.345304 C299.597248,370.157249 315,380 315,380 C315,380 330.402745,370.157249 335,367.345304 C322.700697,349.823418 315,323 315,323 Z" id="Ukraine" fill="#000000" sketch:type="MSShapeGroup"></path>
            <g id="National-element-left" transform="translate(43.742641, 317.955844) rotate(-45.000000) translate(-43.742641, -317.955844) translate(22.742641, 296.955844)" sketch:type="MSShapeGroup">
                <rect id="Red-bottom" fill="#FF0000" x="2.84217094e-14" y="27.8128667" width="13.9064334" height="13.9064334"></rect>
                <rect id="Red-top" fill="#FF0000" x="27.8128667" y="2.84217094e-14" width="13.9064334" height="13.9064334"></rect>
                <rect id="Black" fill="#000000" x="13.9064334" y="13.9064334" width="13.9064334" height="13.9064334"></rect>
                <rect id="Blue-right" fill="#548FFF" x="27.8128667" y="27.8128667" width="13.9064334" height="13.9064334"></rect>
                <rect id="Blue-left" fill="#548FFF" x="0" y="0" width="13.9064334" height="13.9064334"></rect>
            </g>
            <g id="National-element-right" transform="translate(576.035534, 317.955844) rotate(-45.000000) translate(-576.035534, -317.955844) translate(554.535534, 296.455844)" sketch:type="MSShapeGroup">
                <rect id="Red-bottom" fill="#FF0000" x="1" y="28.8128667" width="13.9064334" height="13.9064334"></rect>
                <rect id="Red-top" fill="#FF0000" x="28.8128667" y="1" width="13.9064334" height="13.9064334"></rect>
                <rect id="Black" fill="#000000" x="14.9064334" y="14.9064334" width="13.9064334" height="13.9064334"></rect>
                <rect id="Blue-right" fill="#548FFF" x="28.8128667" y="28.8128667" width="13.9064334" height="13.9064334"></rect>
                <rect id="Blue-left" fill="#548FFF" x="1" y="1" width="13.9064334" height="13.9064334"></rect>
            </g>
        </g>
        <g id="BW" sketch:type="MSLayerGroup" transform="translate(848.000000, 25.000000)">
            <path d="M316,566 C454.071187,566 566,454.071187 566,316 C566,177.928813 454.071187,66 316,66 C177.928813,66 66,177.928813 66,316 C66,454.071187 177.928813,566 316,566 Z" id="Path-for-text" sketch:type="MSShapeGroup" transform="translate(316.000000, 316.000000) scale(1, -1) rotate(-108.000000) translate(-316.000000, -316.000000) "></path>
            <text id="MADE--IN--UKRAINE---" sketch:type="MSTextLayer" transform="translate(767.500000, 87.528320) rotate(1.000000) translate(-767.500000, -87.528320) " font-family="Roboto" font-size="54" font-weight="bold" letter-spacing="7.89999866" fill="#000000">
                <tspan x="68" y="108.52832">MADE  IN  UKRAINE        MADE  IN  UKRAIN</tspan>
                <tspan x="1435.03862" y="108.52832">E</tspan>
            </text>
            <path d="M315.500001,159 C302.749173,172.112156 302.574504,188.53424 302.574504,191.559611 C302.574504,208.954068 305.019868,239.854124 305.019868,273.671297 C305.019868,326.612119 277.65553,361.832783 277.65553,361.832783 C277.65553,361.832783 277.18952,362.697534 271.600117,362.697534 C266.010713,362.697534 253.900563,358.483918 253.900563,346.059575 C253.900563,333.633973 268.688743,330.177486 271.483445,330.177486 C274.278147,330.177486 275.675498,330.609233 275.675498,330.609233 C275.675498,330.609233 272.880796,307.920217 266.592716,256.708585 C254.365895,201.931586 210,182.808256 210,182.808256 L210,419.743403 L269.154752,419.743403 C269.154752,419.743403 273.463477,453.128201 305.019868,474.412779 C305.019868,474.412779 315.033991,482.407006 315.500001,485 C315.96601,482.407006 325.980133,474.412779 325.980133,474.412779 C357.536517,453.128836 361.845249,419.743403 361.845249,419.743403 L421,419.743403 L421,182.808572 C421,182.808572 376.634106,201.931903 364.407285,256.708902 C358.119206,307.920535 355.324504,330.609233 355.324504,330.609233 C355.324504,330.609233 356.721855,330.177486 359.516557,330.177486 C362.311259,330.177486 377.099431,333.634602 377.099431,346.059575 C377.099431,358.484554 364.989289,362.698169 359.399885,362.698169 C353.810481,362.698169 353.344464,361.833412 353.344464,361.833412 C353.344464,361.833412 325.980133,326.612119 325.980133,273.671615 C325.980133,239.854441 328.425497,208.954386 328.425497,191.559927 C328.425497,188.534557 328.250828,172.112472 315.500001,159.000316 L315.500001,159 Z M403,218 C403,218 386.598792,236.648318 381.844387,258.549969 C379.229361,278.716636 374,317.96616 374,317.96616 C374,317.96616 389.688774,324.037634 393.254405,339 L403,339 L403,218 Z M360,379.607824 C363.651972,379.607824 387.733842,376.262442 392.641698,355 L402,355 L402,404 L363.651972,404 C363.651972,404 363.651972,390.616588 360,379.607824 Z M346,404 L325,404 C325,404 325.677763,385.730183 343.245902,383 C344.73726,387.741935 346,393.5 346,404 Z M325,420 L343,420 C343,420 341.038007,439.26757 325,453 L325,420 Z M228,218 C228,218 244.401201,236.648374 249.155613,258.550076 C251.770639,278.716795 257,317.966742 257,317.966742 C257,317.966742 241.311226,324.037595 237.745595,339 L228,339 L228,218 Z M270,379.608143 C266.348028,379.608143 242.266158,376.262718 237.358302,355 L228,355 L228,404 L266.348028,404 C266.348028,404 266.348028,390.617049 270,379.608143 Z M285,404 L306,404 C306,404 305.32223,385.729526 287.754098,383 C286.26274,387.741935 285,393.5 285,404 Z M306,420 L288,420 C288,420 289.961986,439.26757 306,453 L306,420 Z M315,323 C315,323 307.299297,349.823418 295,367.345304 C299.597248,370.157249 315,380 315,380 C315,380 330.402745,370.157249 335,367.345304 C322.700697,349.823418 315,323 315,323 Z" id="Ukraine" fill="#000000" sketch:type="MSShapeGroup"></path>
            <g id="National-element-left" transform="translate(43.742641, 317.955844) rotate(-45.000000) translate(-43.742641, -317.955844) translate(22.742641, 296.955844)" fill="#000000" sketch:type="MSShapeGroup">
                <rect id="Red-bottom" x="2.84217094e-14" y="27.8128667" width="13.9064334" height="13.9064334"></rect>
                <rect id="Red-top" x="27.8128667" y="2.84217094e-14" width="13.9064334" height="13.9064334"></rect>
                <rect id="Black" x="13.9064334" y="13.9064334" width="13.9064334" height="13.9064334"></rect>
                <rect id="Blue-right" x="27.8128667" y="27.8128667" width="13.9064334" height="13.9064334"></rect>
                <rect id="Blue-left" x="0" y="0" width="13.9064334" height="13.9064334"></rect>
            </g>
            <g id="National-element-right" transform="translate(576.035534, 317.955844) rotate(-45.000000) translate(-576.035534, -317.955844) translate(554.535534, 296.455844)" fill="#000000" sketch:type="MSShapeGroup">
                <rect id="Red-bottom" x="1" y="28.8128667" width="13.9064334" height="13.9064334"></rect>
                <rect id="Red-top" x="28.8128667" y="1" width="13.9064334" height="13.9064334"></rect>
                <rect id="Black" x="14.9064334" y="14.9064334" width="13.9064334" height="13.9064334"></rect>
                <rect id="Blue-right" x="28.8128667" y="28.8128667" width="13.9064334" height="13.9064334"></rect>
                <rect id="Blue-left" x="1" y="1" width="13.9064334" height="13.9064334"></rect>
            </g>
        </g>
    </g>
</svg>