<?xml version="1.0" encoding="UTF-8" standalone="no"?>
<svg width="500px" height="488px" viewBox="0 0 500 488" version="1.1" xmlns="http://www.w3.org/2000/svg" xmlns:xlink="http://www.w3.org/1999/xlink" xmlns:sketch="http://www.bohemiancoding.com/sketch/ns">
    <!-- Generator: Sketch 3.2.2 (9983) - http://www.bohemiancoding.com/sketch -->
    <title>BW</title>
    <desc>Created with Sketch.</desc>
    <defs>
        <path d="M16.7763605,287.476849 L25.1386054,279.097565 L33.5,287.476849 L25.1386054,295.856985 L16.7763605,287.476849 Z M16.7763605,253.95886 L25.1386054,245.579576 L33.5,253.95886 L25.1386054,262.338145 L16.7763605,253.95886 Z M16.7763605,270.718281 L25.1386054,262.338145 L33.5,270.718281 L25.1386054,279.097565 L16.7763605,270.718281 Z M33.5,270.718281 L41.8613946,262.338145 L50.2236395,270.718281 L41.8613946,279.097565 L33.5,270.718281 Z M0.0535714286,270.718281 L8.41496599,262.338145 L16.7763605,270.718281 L8.41496599,279.097565 L0.0535714286,270.718281 Z" id="path-1"></path>
        <path d="M465.755952,287.476849 L474.118197,279.097565 L482.479592,287.476849 L474.118197,295.856985 L465.755952,287.476849 Z M465.755952,253.95886 L474.118197,245.579576 L482.479592,253.95886 L474.118197,262.338145 L465.755952,253.95886 Z M465.755952,270.718281 L474.118197,262.338145 L482.479592,270.718281 L474.118197,279.097565 L465.755952,270.718281 Z M482.479592,270.718281 L490.840986,262.338145 L499.203231,270.718281 L490.840986,279.097565 L482.479592,270.718281 Z M449.033163,270.718281 L457.394558,262.338145 L465.755952,270.718281 L457.394558,279.097565 L449.033163,270.718281 Z" id="path-3"></path>
    </defs>
    <g id="Page-1" stroke="none" stroke-width="1" fill="none" fill-rule="evenodd" sketch:type="MSPage">
        <g id="BW" sketch:type="MSLayerGroup" transform="translate(0.000000, -25.000000)">
            <g id="Text" transform="translate(22.000000, 0.000000)" fill="#000106">
                <path d="M452.991497,364.343337 L427.701531,361.44003 L427.642857,361.562741 L445.714286,379.559497 L442.013605,387.299661 L412.57398,373.161483 L415.403912,367.24494 L424.178571,371.458869 L436.908163,378.270179 L436.986395,378.159399 L418.969388,359.788545 L420.868197,355.817482 L446.342687,358.384186 L446.380952,358.252953 L433.189626,352.615066 L424.414966,348.401138 L427.244898,342.484595 L456.683673,356.622772 L452.991497,364.343337" id="Fill-1" sketch:type="MSShapeGroup"></path>
                <path d="M401.682823,402.632566 L408.552721,393.444583 L404.25,387.432598 L408.215986,382.128757 L427.604592,410.756203 L423.585034,416.131625 L390.751701,405.486449 L394.717687,400.181756 L401.682823,402.632566 L401.682823,402.632566 Z M411.693027,397.824683 L406.759354,404.423806 L419.443027,408.893382 L419.522959,408.78601 L411.693027,397.824683 L411.693027,397.824683 Z" id="Fill-2" sketch:type="MSShapeGroup"></path>
                <path d="M384.527211,412.937731 L406.906463,436.755588 L398.744048,444.457405 C395.839286,447.198802 392.570578,448.528171 388.940476,448.445512 C385.311224,448.362 382.129252,446.864756 379.392857,443.953779 L375.688776,440.010837 C372.943027,437.08793 371.642857,433.813934 371.788265,430.188847 C371.935374,426.563761 373.459184,423.380093 376.365646,420.638696 L384.527211,412.937731 L384.527211,412.937731 Z M398.681973,437.572809 L383.219388,421.116757 L380.068878,424.08909 C378.360544,425.700523 377.564626,427.541188 377.680272,429.610231 C377.797619,431.678422 378.731293,433.644354 380.481293,435.508027 L384.211735,439.47909 C385.942177,441.320606 387.834184,442.361093 389.887755,442.602254 C391.941327,442.843415 393.823129,442.157427 395.531463,440.545993 L398.681973,437.572809 L398.681973,437.572809 Z" id="Fill-3" sketch:type="MSShapeGroup"></path>
                <path d="M348.795068,460.944987 L360.020408,453.394002 L354.835034,445.651281 L341.710034,454.479653 L338.89881,450.281063 L357.459184,437.796927 L375.653061,464.960362 L357.128401,477.420638 L354.318027,473.2229 L367.405612,464.419241 L362.831633,457.591739 L351.606293,465.142724 L348.795068,460.944987" id="Fill-4" sketch:type="MSShapeGroup"></path>
                <path d="M290,472.602528 L296.261054,470.685169 L305.803571,501.971352 L299.543367,503.889563 L290,472.602528" id="Fill-5" sketch:type="MSShapeGroup"></path>
                <path d="M251.191327,480.191008 L257.636905,479.170121 L274.142857,499.188199 L274.272109,499.145591 L270.790816,477.084887 L277.257653,476.060591 L282.356293,508.374478 L275.889456,509.398774 L259.387755,489.402852 L259.258503,489.44546 L262.735544,511.484008 L256.290816,512.504895 L251.191327,480.191008" id="Fill-6" sketch:type="MSShapeGroup"></path>
                <path d="M170.579082,507.294792 L174.842687,486.014666 C175.563776,482.415997 177.306973,479.87997 180.072279,478.40403 C182.838435,476.92809 186.141156,476.577852 189.980442,477.349909 C193.805272,478.119409 196.698129,479.717208 198.659014,482.144158 C200.619048,484.571108 201.238946,487.583492 200.517857,491.181309 L196.254252,512.460583 L189.813776,511.165301 L194.07398,489.901365 C194.497449,487.788862 194.25,486.094769 193.331633,484.818234 C192.413265,483.541699 190.965136,482.704027 188.987245,482.306068 C186.979592,481.902145 185.29932,482.105811 183.947279,482.917066 C182.596088,483.729174 181.706633,485.200002 181.280612,487.326992 L177.019558,508.590927 L170.579082,507.294792" id="Fill-7" sketch:type="MSShapeGroup"></path>
                <path d="M150.57483,481.297963 L153.959184,482.619663 L158.909014,469.890957 L165.009354,472.272743 L153.155612,502.754487 L147.056122,500.373553 L151.89966,487.915834 L149.246599,486.88046 L136.338435,496.187746 L128.880102,493.275065 L144.636905,483.078977 L139.919218,462.474613 L147.356293,465.378772 L150.57483,481.297963" id="Fill-8" sketch:type="MSShapeGroup"></path>
                <path d="M119.02381,466.358756 L125.781463,455.171606 L131.381803,458.568314 L114.477041,486.555787 L103.946429,480.168 C100.762755,478.236154 98.712585,475.997532 97.7933673,473.454688 C96.8767007,470.909287 97.202381,468.336618 98.7738095,465.734975 C99.6488095,464.287156 100.776361,463.273086 102.158163,462.692766 C103.539966,462.112445 105.152211,461.943718 106.997449,462.187435 C105.642007,460.700417 104.947279,459.16653 104.914116,457.588331 C104.880952,456.010131 105.370748,454.380802 106.384354,452.702048 L107.626701,450.645787 C108.09949,449.863505 108.487245,448.982372 108.790816,448.003241 C109.094388,447.022405 109.113946,446.17195 108.85119,445.451875 L109.094388,445.048804 L114.867347,448.550327 C115.131803,449.271254 115.05017,450.158352 114.622449,451.211621 C114.196429,452.266595 113.722789,453.222718 113.204932,454.080842 L112.008503,456.062113 C111.164966,457.45795 110.889456,458.774537 111.181973,460.01102 C111.47449,461.247503 112.311224,462.285434 113.692177,463.123958 L119.02381,466.358756 L119.02381,466.358756 Z M116.411565,470.683465 L111.578231,467.750332 C110.005102,466.796766 108.630952,466.419259 107.454932,466.615256 C106.278061,466.812105 105.295918,467.564561 104.505952,468.870922 C103.732143,470.15257 103.503401,471.405244 103.820578,472.631502 C104.137755,473.856907 105.05102,474.927219 106.558673,475.842439 L111.488095,478.832666 L116.411565,470.683465 L116.411565,470.683465 Z" id="Fill-9" sketch:type="MSShapeGroup"></path>
                <path d="M82.204932,432.699309 L90.8358844,440.251998 L97.1377551,436.399385 L102.119898,440.759885 L72.1870748,457.997367 L67.1377551,453.579772 L80.1811224,421.562437 L85.1632653,425.921233 L82.204932,432.699309 L82.204932,432.699309 Z M86.2423469,443.063272 L80.0442177,437.639277 L74.6488095,449.980251 L74.75,450.068875 L86.2423469,443.063272 L86.2423469,443.063272 Z" id="Fill-10" sketch:type="MSShapeGroup"></path>
                <path d="M68.5637755,409.637317 L72.8818027,414.568764 L48.3426871,436.143738 L44.0246599,431.212291 L68.5637755,409.637317" id="Fill-11" sketch:type="MSShapeGroup"></path>
                <path d="M45.6887755,377.286787 L49.2678571,382.754243 L37.8477891,406.065065 L37.9404762,406.16562 L56.5739796,393.913271 L60.1658163,399.398621 L32.8715986,417.345952 L29.2797619,411.859749 L40.6811224,388.561709 L40.5884354,388.462007 L21.9736395,400.701573 L18.3945578,395.234118 L45.6887755,377.286787" id="Fill-12" sketch:type="MSShapeGroup"></path>
                <path d="M17.9498299,353.65811 L23.3588435,366.075777 L31.8860544,362.344171 L25.5629252,347.827635 L30.1862245,345.804608 L39.130102,366.335686 L9.21088435,379.424003 L0.285714286,358.934681 L4.90901361,356.911654 L11.2142857,371.38814 L18.7355442,368.097952 L13.3265306,355.681136 L17.9498299,353.65811" id="Fill-13" sketch:type="MSShapeGroup"></path>
                <path d="M4.1420068,171.183498 L29.3971088,174.375688 L29.4566327,174.254681 L11.5926871,156.05085 L15.3826531,148.354146 L44.6581633,162.829779 L41.7610544,168.713088 L33.0348639,164.397752 L20.3843537,157.441575 L20.3035714,157.552355 L38.1096939,176.12858 L36.1658163,180.077487 L10.7210884,177.21764 L10.6828231,177.348872 L23.8086735,183.137591 L32.5348639,187.452927 L29.6386054,193.336236 L0.362244898,178.860603 L4.1420068,171.183498" id="Fill-14" sketch:type="MSShapeGroup"></path>
                <path d="M55.880102,133.492485 L48.9056122,142.601218 L53.1403061,148.660924 L49.1122449,153.9196 L30.0535714,125.072297 L34.1352041,119.742892 L66.8443878,130.764723 L62.8180272,136.023399 L55.880102,133.492485 L55.880102,133.492485 Z M45.8163265,138.185327 L50.8248299,131.643299 L38.1947279,127.027151 L38.1122449,127.134523 L45.8163265,138.185327 L45.8163265,138.185327 Z" id="Fill-15" sketch:type="MSShapeGroup"></path>
                <path d="M73.1513605,123.387578 L51.045068,99.3140731 L59.2942177,91.7076977 C62.2321429,88.9986827 65.5144558,87.7076611 69.1437075,87.8320764 C72.7721088,87.9564917 75.9370748,89.4903787 78.6394558,92.4328854 L82.2984694,96.4175831 C85.0110544,99.3720199 86.2729592,102.660503 86.0867347,106.283885 C85.8979592,109.907267 84.3367347,113.072188 81.4005102,115.781203 L73.1513605,123.387578 L73.1513605,123.387578 Z M59.2797619,98.592294 L74.5527211,115.224743 L77.7363946,112.288201 C79.4634354,110.696367 80.2797619,108.865076 80.1879252,106.795181 C80.0952381,104.725286 79.1828231,102.748276 77.4540816,100.865855 L73.7687075,96.8521844 C72.0595238,94.9910681 70.1794218,93.9284252 68.130102,93.6634037 C66.0790816,93.3992342 64.1896259,94.0639186 62.4634354,95.6557525 L59.2797619,98.592294 L59.2797619,98.592294 Z" id="Fill-16" sketch:type="MSShapeGroup"></path>
                <path d="M109.437925,75.7816894 L98.127551,83.2048505 L103.22619,91.0055183 L116.44898,82.3262741 L119.213435,86.5555415 L100.512755,98.8291944 L82.627551,71.4612409 L101.289966,59.2123007 L104.053571,63.4415681 L90.8673469,72.0960997 L95.3639456,78.9755831 L106.67432,71.5524219 L109.437925,75.7816894" id="Fill-17" sketch:type="MSShapeGroup"></path>
                <path d="M168.35034,64.8024668 L162.067177,66.6490963 L152.881803,35.2563937 L159.164116,33.4097641 L168.35034,64.8024668" id="Fill-18" sketch:type="MSShapeGroup"></path>
                <path d="M207.251701,57.6579618 L200.795918,58.604711 L184.518707,38.3974535 L184.389456,38.4392093 L187.618197,60.5382608 L181.140306,61.4884186 L176.410714,29.1191412 L182.888605,28.1689834 L199.161565,48.3523804 L199.291667,48.3114767 L196.066327,26.2354336 L202.522109,25.2878322 L207.251701,57.6579618" id="Fill-19" sketch:type="MSShapeGroup"></path>
                <text id="-" sketch:type="MSTextLayer" font-family="Roboto" font-size="42.0684" font-weight="bold">
                    <tspan x="235.027466" y="44.1967528"> </tspan>
                </text>
                <path d="M288.166667,31.4847359 L283.660714,52.7145847 C282.897959,56.3047326 281.126701,58.8211595 278.344388,60.2647176 C275.562925,61.7082757 272.255952,62.0227226 268.42517,61.2055017 C264.609694,60.3925415 261.735544,58.7606561 259.801871,56.3115498 C257.869048,53.8632957 257.283163,50.8449468 258.045918,47.254799 L262.551871,26.0249502 L268.977891,27.3943704 L264.47534,48.6080282 C264.027211,50.7154186 264.255102,52.4120681 265.159014,53.6988289 C266.062925,54.9864419 267.50085,55.8403056 269.47449,56.2604203 C271.477891,56.6873522 273.159014,56.5032857 274.520408,55.7073688 C275.882653,54.9105997 276.787415,53.4508505 277.238095,51.3281213 L281.740646,30.1144635 L288.166667,31.4847359" id="Fill-20" sketch:type="MSShapeGroup"></path>
                <path d="M307.858844,57.7014219 L304.489796,56.3413754 L299.397109,69.0129867 L293.32398,66.5613239 L305.520408,36.2159252 L311.593537,38.667588 L306.609694,51.0682126 L309.25085,52.1342641 L322.261905,42.974402 L329.687075,45.9697425 L313.817177,55.9877292 L318.301871,76.6432226 L310.897959,73.6555515 L307.858844,57.7014219" id="Fill-21" sketch:type="MSShapeGroup"></path>
                <path d="M339.243197,72.9993887 L332.358844,84.1072874 L326.796769,80.6458156 L344.022109,52.8560432 L354.477891,59.3648372 C357.640306,61.3341777 359.664966,63.595809 360.554422,66.1488787 C361.442177,68.704505 361.086735,71.2737658 359.485544,73.8566611 C358.594388,75.2942542 357.454082,76.2946894 356.066327,76.8588189 C354.678571,77.4229485 353.063776,77.5729286 351.221939,77.3087591 C352.559524,78.8111163 353.237245,80.3526728 353.252551,81.9317243 C353.267857,83.5107757 352.759354,85.1341395 351.72534,86.8001113 L350.460034,88.8427375 C349.978741,89.619907 349.579932,90.4959269 349.264456,91.4725017 C348.95068,92.4490764 348.920918,93.2978272 349.176871,94.0221628 L348.927721,94.4235299 L343.195578,90.8538339 C342.939626,90.1312027 343.031463,89.2449568 343.470238,88.1950963 C343.909864,87.1469402 344.393707,86.1950781 344.921769,85.3420664 L346.141156,83.3769867 C347,81.9905233 347.289966,80.6773455 347.012755,79.4374535 C346.733844,78.1975615 345.909864,77.1494053 344.538265,76.2963937 L339.243197,72.9993887 L339.243197,72.9993887 Z M341.905612,68.7053571 L346.705782,71.6930282 C348.267007,72.66449 349.636905,73.0590399 350.815476,72.8758256 C351.993197,72.6934635 352.984694,71.9520847 353.789116,70.6542458 C354.577381,69.3819718 354.821429,68.1310017 354.517857,66.9021877 C354.215136,65.6725216 353.314626,64.5928355 351.816327,63.6597209 L346.922619,60.6132508 L341.905612,68.7053571 L341.905612,68.7053571 Z" id="Fill-22" sketch:type="MSShapeGroup"></path>
                <path d="M375.678571,107.082359 L367.135204,99.4325233 L360.789116,103.210146 L355.856293,98.7942558 L385.985544,81.9001944 L390.984694,86.376588 L377.57398,118.242239 L372.642857,113.825497 L375.678571,107.082359 L375.678571,107.082359 Z M371.759354,96.6732309 L377.895408,102.168807 L383.431973,89.8891894 L383.331633,89.7997126 L371.759354,96.6732309 L371.759354,96.6732309 Z" id="Fill-23" sketch:type="MSShapeGroup"></path>
                <path d="M389.058673,130.305409 L384.798469,125.323684 L409.582483,104.031628 L413.843537,109.0125 L389.058673,130.305409" id="Fill-24" sketch:type="MSShapeGroup"></path>
                <path d="M411.558673,162.903065 L408.041667,157.39641 L419.72534,134.216821 L419.633503,134.115414 L400.863095,146.155575 L397.334184,140.628468 L424.829082,122.993028 L428.357993,128.519282 L416.693878,151.68609 L416.785714,151.787497 L435.538265,139.76097 L439.054422,145.267625 L411.558673,162.903065" id="Fill-25" sketch:type="MSShapeGroup"></path>
                <path d="M439.278061,186.504473 L433.814626,174.111518 L425.303571,177.879767 L431.691327,192.369035 L427.076531,194.411661 L418.043367,173.920635 L447.903912,160.701085 L456.919218,181.151208 L452.304422,183.193834 L445.935374,168.744618 L438.429422,172.067188 L443.892857,184.460995 L439.278061,186.504473" id="Fill-26" sketch:type="MSShapeGroup"></path>
            </g>
            <path d="M249.164966,275.016573 C249.164966,275.016573 242.617347,297.874047 232.158163,312.805585 C236.068027,315.201857 249.164966,323.589663 249.164966,323.589663 C249.164966,323.589663 262.262755,315.201857 266.171769,312.805585 C255.713435,297.874047 249.164966,275.016573 249.164966,275.016573 L249.164966,275.016573 Z M241.511905,357.676042 L226.205782,357.676042 C226.205782,357.676042 227.87415,374.09545 241.511905,385.797304 L241.511905,357.676042 L241.511905,357.676042 Z M223.654762,344.04149 L241.511905,344.04149 C241.511905,344.04149 240.936224,328.471684 225.996599,326.146141 C224.728741,330.187081 223.654762,335.093816 223.654762,344.04149 L223.654762,344.04149 Z M210.89966,323.255616 C207.794218,323.255616 187.317177,320.405143 183.143707,302.285676 L175.185374,302.285676 L175.185374,344.04149 L207.794218,344.04149 C207.794218,344.04149 207.794218,332.63704 210.89966,323.255616 L210.89966,323.255616 Z M175.185374,185.539829 C175.185374,185.539829 189.132653,201.430899 193.17517,220.094895 C195.39881,237.280395 199.845238,270.727654 199.845238,270.727654 C199.845238,270.727654 186.505102,275.900262 183.472789,288.651125 L175.185374,288.651125 L175.185374,185.539829 L175.185374,185.539829 Z M257.668367,357.676042 L272.97449,357.676042 C272.97449,357.676042 271.306122,374.09545 257.668367,385.797304 L257.668367,357.676042 L257.668367,357.676042 Z M275.52551,344.04149 L257.668367,344.04149 C257.668367,344.04149 258.244898,328.472537 273.183673,326.146141 C274.452381,330.187081 275.52551,335.093816 275.52551,344.04149 L275.52551,344.04149 Z M287.430272,323.255616 C290.535714,323.255616 311.013605,320.404291 315.187075,302.285676 L323.144558,302.285676 L323.144558,344.04149 L290.535714,344.04149 C290.535714,344.04149 290.535714,332.636188 287.430272,323.255616 L287.430272,323.255616 Z M323.994898,185.539829 C323.994898,185.539829 310.048469,201.430899 306.005952,220.094895 C303.782313,237.280395 299.335034,270.726802 299.335034,270.726802 C299.335034,270.726802 312.67602,275.901115 315.708333,288.651125 L323.994898,288.651125 L323.994898,185.539829 L323.994898,185.539829 Z M249.590136,135.26242 C238.748299,146.435935 238.59949,160.430098 238.59949,163.008733 C238.59949,177.831194 240.678571,204.162922 240.678571,232.980399 C240.678571,278.094573 217.409864,308.108482 217.409864,308.108482 C217.409864,308.108482 217.013605,308.844748 212.260204,308.844748 C207.507653,308.844748 197.210034,305.2546 197.210034,294.666518 C197.210034,284.078437 209.784864,281.132522 212.161565,281.132522 C214.538265,281.132522 215.72619,281.500654 215.72619,281.500654 C215.72619,281.500654 213.34949,262.166008 208.002551,218.52607 C197.605442,171.846478 159.879252,155.550633 159.879252,155.550633 L159.879252,357.457037 L210.181122,357.457037 C210.181122,357.457037 213.845238,385.90638 240.678571,404.044595 C240.678571,404.044595 249.193878,410.856757 249.590136,413.066407 C249.986395,410.856757 258.502551,404.044595 258.502551,404.044595 C285.335884,385.907233 289,357.457037 289,357.457037 L339.30102,357.457037 L339.30102,155.550633 C339.30102,155.550633 301.57483,171.847331 291.178571,218.52607 C285.831633,262.166008 283.454932,281.500654 283.454932,281.500654 C283.454932,281.500654 284.642857,281.132522 287.019558,281.132522 C289.396259,281.132522 301.971088,284.078437 301.971088,294.666518 C301.971088,305.2546 291.673469,308.8456 286.920068,308.8456 C282.167517,308.8456 281.771259,308.108482 281.771259,308.108482 C281.771259,308.108482 258.502551,278.094573 258.502551,232.981251 C258.502551,204.162922 260.581633,177.831194 260.581633,163.008733 C260.581633,160.430098 260.432823,146.435935 249.590136,135.26242 L249.590136,135.26242 Z" id="Clip-28" fill="#000000" sketch:type="MSShapeGroup"></path>
            <mask id="mask-2" sketch:name="Cross left" fill="white">
                <use xlink:href="#path-1"></use>
            </mask>
            <use id="Cross-left" fill="#000000" sketch:type="MSShapeGroup" xlink:href="#path-1"></use>
            <mask id="mask-4" sketch:name="Cross right" fill="white">
                <use xlink:href="#path-3"></use>
            </mask>
            <use id="Cross-right" fill="#000000" sketch:type="MSShapeGroup" xlink:href="#path-3"></use>
        </g>
    </g>
</svg>